<svg width="6" height="14" viewBox="0 0 6 14" fill="none" xmlns="http://www.w3.org/2000/svg">
<path d="M2.48545 12.1425C2.01187 12.4266 1.8583 13.0409 2.14244 13.5145C2.42659 13.9881 3.04084 14.1416 3.51443 13.8575L2.48545 12.1425ZM2.4855 0.142508C0.974306 1.04923 0.125007 2.47947 0.125 4C0.124993 5.52052 0.974279 6.95077 2.48546 7.85749L3.51446 6.14251C2.52569 5.54923 2.125 4.72948 2.125 4C2.125 3.27053 2.5257 2.45077 3.5145 1.85749L2.4855 0.142508ZM2.48546 7.85749C3.47424 8.45077 3.87495 9.27054 3.87496 10C3.87496 10.7295 3.47428 11.5492 2.48545 12.1425L3.51443 13.8575C5.02566 12.9508 5.87497 11.5205 5.87496 9.99999C5.87494 8.47946 5.02563 7.04923 3.51446 6.14251L2.48546 7.85749Z" fill="#FFD60A" style="fill:#FFD60A;fill:color(display-p3 1.0000 0.8392 0.0392);fill-opacity:1;"/>
</svg>
