<svg width="15" height="15" viewBox="0 0 15 15" fill="none" xmlns="http://www.w3.org/2000/svg">
<g clip-path="url(#clip0_95_869)">
<path d="M14.3906 0.0203577C13.2568 0.360201 11.1152 1.02524 8.8916 1.81626C8.83008 1.61118 8.77441 1.42075 8.72754 1.27133C8.63965 0.987154 8.32031 0.855319 8.05664 0.993014C6.81445 1.64047 3.58008 3.41294 1.77539 5.16782C1.74316 5.19711 1.70215 5.22641 1.67285 5.25571C0.556641 6.36899 0 7.8309 0 9.29282C0 10.7518 0.556641 12.2137 1.66992 13.3299C2.7832 14.4432 4.24512 15.0028 5.70703 14.9998C7.16895 14.9998 8.63086 14.4432 9.74707 13.327C9.77637 13.2977 9.80566 13.2567 9.83496 13.2245C11.5869 11.4198 13.3623 8.18247 14.0098 6.94321C14.1475 6.67954 14.0156 6.3602 13.7314 6.27231C13.5791 6.22544 13.3916 6.16977 13.1865 6.10825C13.9775 3.88169 14.6426 1.74301 14.9824 0.609225C15.0879 0.245944 14.7539 -0.0880408 14.3906 0.0203577ZM5.625 13.1248C3.55371 13.1248 1.875 11.4461 1.875 9.37485C1.875 7.30356 3.55371 5.62485 5.625 5.62485C7.69629 5.62485 9.375 7.30356 9.375 9.37485C9.375 11.4461 7.69629 13.1248 5.625 13.1248ZM4.6875 7.49985C4.16895 7.49985 3.75 7.91879 3.75 8.43735C3.75 8.9559 4.16895 9.37485 4.6875 9.37485C5.20605 9.37485 5.625 8.9559 5.625 8.43735C5.625 7.91879 5.20605 7.49985 4.6875 7.49985ZM6.09375 10.3123C5.83594 10.3123 5.625 10.5233 5.625 10.7811C5.625 11.0389 5.83594 11.2498 6.09375 11.2498C6.35156 11.2498 6.5625 11.0389 6.5625 10.7811C6.5625 10.5233 6.35156 10.3123 6.09375 10.3123Z" fill="white" style="fill:white;fill-opacity:1;"/>
</g>
<defs>
<clipPath id="clip0_95_869">
<rect width="15" height="15" fill="white" style="fill:white;fill-opacity:1;"/>
</clipPath>
</defs>
</svg>
