<?xml version="1.0" encoding="UTF-8" standalone="no"?>
<!DOCTYPE svg PUBLIC "-//W3C//DTD SVG 1.1//EN" "http://www.w3.org/Graphics/SVG/1.1/DTD/svg11.dtd">
<svg width="100%" height="100%" viewBox="0 0 1024 1024" version="1.1" xmlns="http://www.w3.org/2000/svg" xmlns:xlink="http://www.w3.org/1999/xlink" xml:space="preserve" xmlns:serif="http://www.serif.com/" style="fill-rule:evenodd;clip-rule:evenodd;stroke-linejoin:round;stroke-miterlimit:2;">
    <rect x="0" y="0" width="1024" height="1024" style="fill:rgb(199,199,199);fill-opacity:0.4;"/>
    <g transform="matrix(1.2921,0,0,1.0126,-126.656,258.406)">
        <path d="M786.05,315.498C786.05,308.957 781.889,303.647 776.763,303.647L211.791,303.647C206.666,303.647 202.504,308.957 202.504,315.498C202.504,322.038 206.666,327.349 211.791,327.349L776.763,327.349C781.889,327.349 786.05,322.038 786.05,315.498Z" style="fill:rgb(126,126,126);"/>
    </g>
    <g transform="matrix(0.993923,0,0,1.26575,20.7264,48.5376)">
        <path d="M786.05,315.498C786.05,308.957 779.288,303.647 770.958,303.647L217.596,303.647C209.266,303.647 202.504,308.957 202.504,315.498C202.504,322.038 209.266,327.349 217.596,327.349L770.958,327.349C779.288,327.349 786.05,322.038 786.05,315.498Z" style="fill:rgb(126,126,126);"/>
    </g>
    <g transform="matrix(1.2921,0,0,1.26575,-126.656,-83.2212)">
        <path d="M786.05,315.498C786.05,308.957 780.848,303.647 774.441,303.647L214.113,303.647C207.706,303.647 202.504,308.957 202.504,315.498C202.504,322.038 207.706,327.349 214.113,327.349L774.441,327.349C780.848,327.349 786.05,322.038 786.05,315.498Z" style="fill:rgb(126,126,126);"/>
    </g>
    <g transform="matrix(-1.2921,-1.58237e-16,1.5501e-16,-1.26575,1150.66,977.221)">
        <path d="M786.05,315.498C786.05,308.957 780.848,303.647 774.441,303.647L214.113,303.647C207.706,303.647 202.504,308.957 202.504,315.498C202.504,322.038 207.706,327.349 214.113,327.349L774.441,327.349C780.848,327.349 786.05,322.038 786.05,315.498Z" style="fill:rgb(126,126,126);"/>
    </g>
    <g transform="matrix(-0.993923,-1.21721e-16,1.5501e-16,-1.26575,1003.27,1107.22)">
        <path d="M786.05,315.498C786.05,308.957 779.288,303.647 770.958,303.647L217.596,303.647C209.266,303.647 202.504,308.957 202.504,315.498C202.504,322.038 209.266,327.349 217.596,327.349L770.958,327.349C779.288,327.349 786.05,322.038 786.05,315.498Z" style="fill:rgb(126,126,126);"/>
    </g>
</svg>
