<svg width="754" height="754" viewBox="0 0 754 754" fill="none" xmlns="http://www.w3.org/2000/svg">
<path d="M377 546.805C368.167 546.305 350.217 550.305 350.55 560.305C350.907 571.018 364.575 576.683 373.55 578.724C373 584.5 368 599.5 359 599.5C352.629 599.5 347.914 596.6 343.763 594.048L343.756 594.043C343.349 593.793 342.947 593.546 342.55 593.305C343.05 597.305 347.8 606 359 606C372.95 606 377 593.305 377 593.305C377 593.305 380.674 606 394.624 606C405.824 606 410.574 597.305 411.074 593.305C410.9 593.41 410.726 593.517 410.55 593.624C410.437 593.694 410.323 593.763 410.209 593.833L409.868 594.043L409.861 594.048C405.71 596.6 400.996 599.5 394.624 599.5C385.624 599.5 380.624 584.5 380.074 578.724C389.05 576.683 402.717 571.018 403.074 560.305C403.407 550.305 385.833 546.305 377 546.805Z" fill="white"/>
<path d="M287 441.5C290.2 447.5 287.55 453.805 285.05 454.805C281.815 456.099 280.603 454.378 278.606 451.542C278.265 451.057 277.901 450.54 277.5 450C253 417 201.5 420 191.55 429.805C191.55 423.5 202.91 412.34 211.5 411.5C257.5 407 283 434 287 441.5Z" fill="white"/>
<path d="M466.624 441.5C463.424 447.5 466.074 453.805 468.574 454.805C471.809 456.099 473.021 454.378 475.018 451.542C475.359 451.057 475.723 450.54 476.124 450C500.624 417 552.124 420 562.074 429.805C562.074 423.5 550.715 412.34 542.124 411.5C496.124 407 470.624 434 466.624 441.5Z" fill="white"/>
<path d="M49.8001 494.555C55.1972 540.11 71.5501 627.805 71.5501 627.805C71.9029 633.5 63.4029 635 57.5501 633.805C53.2111 632.919 38.7029 623.9 33.9029 619.5C29.1029 615.1 25.4029 607.5 23.55 597.805C21.6971 588.11 14.2265 544.355 8.40289 490C3.26873 442.08 0.875607 393.456 0.219887 380.132C0.134616 378.4 0.0787255 377.264 0.050009 376.805C-0.450012 368.805 2.69909 362.813 14.05 357.805C29.554 350.965 40.9029 353.5 42.0501 361.305C42.0501 361.305 44.4029 449 49.8001 494.555Z" fill="white"/>
<path d="M703.824 494.555C698.427 540.11 682.074 627.805 682.074 627.805C681.721 633.5 690.221 635 696.074 633.805C700.413 632.919 714.921 623.9 719.721 619.5C724.521 615.1 728.221 607.5 730.074 597.805C731.927 588.11 739.398 544.355 745.221 490C750.355 442.081 752.748 393.458 753.404 380.134L753.409 380.038C753.492 378.359 753.546 377.256 753.574 376.805C754.074 368.805 750.925 362.813 739.574 357.805C724.07 350.965 712.721 353.5 711.574 361.305C711.574 361.305 709.221 449 703.824 494.555Z" fill="white"/>
<path fill-rule="evenodd" clip-rule="evenodd" d="M109.05 531.805C99.0501 366.805 236 332 377 332C518 332 654.574 366.805 644.574 531.805C636.518 664.729 503.647 699.5 377 699.5C250.353 699.5 117.106 664.729 109.05 531.805ZM126.403 531.805C134.547 655.537 273.944 678.305 377 678.305C480.056 678.305 619.077 655.537 627.221 531.805C639.425 346.396 438.214 348.699 385.349 350C382.945 350.059 380.848 350.036 379.092 350.016C378.329 350.008 377.631 350 377 350C376.369 350 375.671 350.008 374.909 350.016C373.153 350.036 371.055 350.059 368.65 350C315.751 348.699 114.199 346.392 126.403 531.805ZM350.55 560.305C350.217 550.305 368.167 546.305 377 546.805C385.833 546.305 403.407 550.305 403.074 560.305C402.717 571.018 389.05 576.683 380.074 578.724C380.624 584.5 385.624 599.5 394.624 599.5C400.996 599.5 405.71 596.6 409.861 594.048L409.868 594.043L410.209 593.833C410.323 593.763 410.437 593.694 410.55 593.624C410.726 593.517 410.9 593.41 411.074 593.305C410.574 597.305 405.824 606 394.624 606C380.674 606 377 593.305 377 593.305C377 593.305 372.95 606 359 606C347.8 606 343.05 597.305 342.55 593.305C342.947 593.546 343.349 593.793 343.756 594.043L343.763 594.048C347.914 596.6 352.629 599.5 359 599.5C368 599.5 373 584.5 373.55 578.724C364.575 576.683 350.907 571.018 350.55 560.305ZM285.05 454.805C287.55 453.805 290.2 447.5 287 441.5C283 434 257.5 407 211.5 411.5C202.91 412.34 191.55 423.5 191.55 429.805C201.5 420 253 417 277.5 450C277.901 450.54 278.265 451.057 278.606 451.542C280.603 454.378 281.815 456.099 285.05 454.805ZM468.574 454.805C466.074 453.805 463.424 447.5 466.624 441.5C470.624 434 496.124 407 542.124 411.5C550.715 412.34 562.074 423.5 562.074 429.805C552.124 420 500.624 417 476.124 450C475.723 450.54 475.359 451.057 475.018 451.542C473.021 454.378 471.809 456.099 468.574 454.805Z" fill="white"/>
<path fill-rule="evenodd" clip-rule="evenodd" d="M57.0501 356.305C64.0501 288.305 88.0501 235.305 88.0501 235.305C38.0501 154.305 35.5501 94.3051 65.5501 14.8051C67.3197 11.0131 70.5501 5.30495 73.0501 3.30501C75.5501 1.30506 84.1566 -0.800146 93.5501 0.305001C188.05 11.4229 269.05 72.3051 269.05 72.3051C286.717 67.3051 330.5 58.3051 377 58.3051C423.5 58.3051 466.907 67.3051 484.574 72.3051C484.574 72.3051 565.574 11.4229 660.074 0.305001C669.468 -0.800146 678.074 1.30506 680.574 3.30501C683.074 5.30495 686.305 11.0131 688.074 14.8051C718.074 94.3051 715.574 154.305 665.574 235.305C665.574 235.305 689.574 288.305 696.574 356.305C696.574 356.305 695.221 447 689.95 494.555C684.679 542.11 666.721 633.805 666.721 633.805C651.868 682.5 562.063 753.056 377 753.056C191.937 753.056 101.756 682.5 86.9029 633.805C86.9029 633.805 68.945 542.11 63.674 494.555C58.4029 447 57.0501 356.305 57.0501 356.305ZM249.05 117.805C189.05 124.605 140.383 182.638 123.55 210.805C56.5501 130.305 85.0501 49.3051 101.55 38.3051C118.05 27.3051 196.05 52.3051 249.05 117.805ZM504.574 117.805C564.574 124.605 613.241 182.638 630.074 210.805C697.074 130.305 668.574 49.3051 652.074 38.3051C635.574 27.3051 557.574 52.3051 504.574 117.805ZM377 317C377.461 317 377.966 317.003 378.515 317.007C379.765 317.015 381.24 317.025 382.922 317C434.929 316.235 685.699 312.786 663.721 533.805C645.898 713.053 463.147 719.305 377 719.305C290.853 719.305 107.727 713.053 89.9029 533.805C67.9254 312.783 319.045 316.235 371.078 317H377ZM109.05 531.805C99.0501 366.805 236 332 377 332C518 332 654.574 366.805 644.574 531.805C636.518 664.729 503.647 699.5 377 699.5C250.353 699.5 117.106 664.729 109.05 531.805ZM126.403 531.805C134.547 655.537 273.944 678.305 377 678.305C480.056 678.305 619.077 655.537 627.221 531.805C639.425 346.396 438.214 348.699 385.349 350C382.945 350.059 380.848 350.036 379.092 350.016C378.329 350.008 377.631 350 377 350C376.369 350 375.671 350.008 374.909 350.016C373.153 350.036 371.055 350.059 368.65 350C315.751 348.699 114.199 346.392 126.403 531.805ZM350.55 560.305C350.217 550.305 368.167 546.305 377 546.805C385.833 546.305 403.407 550.305 403.074 560.305C402.717 571.018 389.05 576.683 380.074 578.724C380.624 584.5 385.624 599.5 394.624 599.5C400.996 599.5 405.71 596.6 409.861 594.048L409.868 594.043L410.209 593.833C410.323 593.763 410.437 593.694 410.55 593.624C410.726 593.517 410.9 593.41 411.074 593.305C410.574 597.305 405.824 606 394.624 606C380.674 606 377 593.305 377 593.305C377 593.305 372.95 606 359 606C347.8 606 343.05 597.305 342.55 593.305C342.947 593.546 343.349 593.793 343.756 594.043L343.763 594.048C347.914 596.6 352.629 599.5 359 599.5C368 599.5 373 584.5 373.55 578.724C364.575 576.683 350.907 571.018 350.55 560.305ZM285.05 454.805C287.55 453.805 290.2 447.5 287 441.5C283 434 257.5 407 211.5 411.5C202.91 412.34 191.55 423.5 191.55 429.805C201.5 420 253 417 277.5 450C277.901 450.54 278.265 451.057 278.606 451.542C280.603 454.378 281.815 456.099 285.05 454.805ZM468.574 454.805C466.074 453.805 463.424 447.5 466.624 441.5C470.624 434 496.124 407 542.124 411.5C550.715 412.34 562.074 423.5 562.074 429.805C552.124 420 500.624 417 476.124 450C475.723 450.54 475.359 451.057 475.018 451.542C473.021 454.378 471.809 456.099 468.574 454.805Z" fill="white"/>
<path fill-rule="evenodd" clip-rule="evenodd" d="M243 578C277.794 578 306 551.585 306 519C306 486.415 277.794 460 243 460C221.57 460 202.639 470.021 191.258 485.332C195.928 480.099 201.723 477 208 477C223.464 477 236 495.804 236 519C236 542.196 223.464 561 208 561C201.723 561 195.928 557.901 191.258 552.668C202.639 567.979 221.57 578 243 578Z" fill="white"/>
<path fill-rule="evenodd" clip-rule="evenodd" d="M459.258 485.332C463.927 480.099 469.722 477 476 477C491.464 477 504 495.804 504 519C504 542.196 491.464 561 476 561C469.722 561 463.927 557.901 459.258 552.668C470.638 567.979 489.57 578 511 578C545.794 578 574 551.585 574 519C574 486.415 545.794 460 511 460C489.57 460 470.638 470.021 459.258 485.332Z" fill="white"/>
</svg>
