<svg width="7" height="23" viewBox="0 0 7 23" fill="none" xmlns="http://www.w3.org/2000/svg">
<path d="M4.00005 1.00002C4.00006 0.447731 3.55235 8.76188e-06 3.00006 0C2.44778 -8.82149e-06 2.00006 0.447699 2.00005 0.999984L4.00005 1.00002ZM2.00005 0.999984C2.00004 1.57537 1.83025 2.22213 1.55739 3.05629C1.29849 3.84777 0.944527 4.81281 0.712074 5.84224C0.225925 7.99517 0.240604 10.5264 2.15635 13.5369L3.84367 12.4631C2.25942 9.97359 2.2741 8.00483 2.66296 6.28276C2.86801 5.37469 3.1703 4.55848 3.45828 3.67809C3.7323 2.84037 4.00003 1.92463 4.00005 1.00002L2.00005 0.999984ZM2.15635 13.5369C3.88606 16.255 4.34719 17.8857 4.25412 18.9095C4.17212 19.8115 3.63062 20.4554 2.4855 21.1425L3.51448 22.8575C4.86942 22.0446 6.07792 20.9385 6.24591 19.0905C6.40284 17.3643 5.61394 15.245 3.84367 12.4631L2.15635 13.5369Z" fill="#FFD60A" style="fill:#FFD60A;fill:color(display-p3 1.0000 0.8392 0.0392);fill-opacity:1;"/>
</svg>
